<svg xmlns="http://www.w3.org/2000/svg" version="1.1" xmlns:xlink="http://www.w3.org/1999/xlink" xmlns:svgjs="http://svgjs.dev/svgjs" width="1440" height="560" preserveAspectRatio="none" viewBox="0 0 1440 560"><g mask="url(&quot;#SvgjsMask3960&quot;)" fill="none"><rect width="1440" height="560" x="0" y="0" fill="url(&quot;#SvgjsLinearGradient3961&quot;)"></rect><path d="M0 0L554.82 0L0 118.88z" fill="rgba(255, 255, 255, .1)"></path><path d="M0 118.88L554.82 0L892.76 0L0 275.47z" fill="rgba(255, 255, 255, .075)"></path><path d="M0 275.47L892.76 0L932 0L0 390.94000000000005z" fill="rgba(255, 255, 255, .05)"></path><path d="M0 390.94000000000005L932 0L994.6 0L0 505.37000000000006z" fill="rgba(255, 255, 255, .025)"></path><path d="M1440 560L1065.07 560L1440 390.6z" fill="rgba(0, 0, 0, .1)"></path><path d="M1440 390.6L1065.07 560L839.8299999999999 560L1440 232.05z" fill="rgba(0, 0, 0, .075)"></path><path d="M1440 232.04999999999995L839.8299999999999 560L503.2099999999999 560L1440 133.85999999999996z" fill="rgba(0, 0, 0, .05)"></path><path d="M1440 133.85999999999996L503.2099999999999 560L196.8499999999999 560L1440 71.46999999999996z" fill="rgba(0, 0, 0, .025)"></path></g><defs><mask id="SvgjsMask3960"><rect width="1440" height="560" fill="#ffffff"></rect></mask><linearGradient x1="50%" y1="100%" x2="50%" y2="0%" gradientUnits="userSpaceOnUse" id="SvgjsLinearGradient3961"><stop stop-color="rgba(14, 42, 71, 1)" offset="0"></stop><stop stop-color="rgba(158, 0, 145, 1)" offset="1"></stop></linearGradient></defs></svg>